<?xml version="1.0" encoding="UTF-8" standalone="no"?>
<!DOCTYPE svg PUBLIC "-//W3C//DTD SVG 1.1//EN"
 "http://www.w3.org/Graphics/SVG/1.1/DTD/svg11.dtd">
<!-- Generated by graphviz version 2.36.0 (20140111.2315)
 -->
<!-- Title: %3 Pages: 1 -->
<svg width="764pt" height="456pt"
 viewBox="0.00 0.00 764.00 456.00" xmlns="http://www.w3.org/2000/svg" xmlns:xlink="http://www.w3.org/1999/xlink">
<g id="graph0" class="graph" transform="scale(1 1) rotate(0) translate(4 452)">
<title>%3</title>
<polygon fill="white" stroke="none" points="-4,4 -4,-452 760,-452 760,4 -4,4"/>
<!-- 1.A -->
<g id="node1" class="node"><title>1.A</title>
<polygon fill="#ccffcc" stroke="black" points="136,-250 82,-250 82,-214 136,-214 136,-250"/>
<text text-anchor="middle" x="109" y="-228.3" font-family="Times,serif" font-size="14.00">1.A</text>
</g>
<!-- 1.I -->
<g id="node2" class="node"><title>1.I</title>
<polygon fill="#ccffcc" stroke="black" points="228,-326 174,-326 174,-290 228,-290 228,-326"/>
<text text-anchor="middle" x="201" y="-304.3" font-family="Times,serif" font-size="14.00">1.I</text>
</g>
<!-- 1.A&#45;&gt;1.I -->
<g id="edge3" class="edge"><title>1.A&#45;&gt;1.I</title>
<path fill="none" stroke="#000000" d="M128.918,-258.291C136.113,-267.152 144.809,-276.647 154,-284 159.909,-288.727 166.892,-292.935 173.609,-296.457"/>
<polygon fill="#000000" stroke="#000000" points="131.675,-256.135 122.76,-250.411 126.16,-260.446 131.675,-256.135"/>
</g>
<!-- 1.F -->
<g id="node5" class="node"><title>1.F</title>
<polygon fill="#ccffcc" stroke="black" points="320,-347 266,-347 266,-311 320,-311 320,-347"/>
<text text-anchor="middle" x="293" y="-325.3" font-family="Times,serif" font-size="14.00">1.F</text>
</g>
<!-- 1.A&#45;&gt;1.F -->
<g id="edge5" class="edge"><title>1.A&#45;&gt;1.F</title>
<path fill="none" stroke="#000000" d="M145.417,-245.465C169.325,-255.068 201.271,-268.91 228,-284 242.075,-291.946 256.894,-302.229 268.724,-310.958"/>
<polygon fill="#000000" stroke="#000000" points="146.614,-242.175 136.028,-241.745 144.036,-248.683 146.614,-242.175"/>
</g>
<!-- 1.B -->
<g id="node7" class="node"><title>1.B</title>
<polygon fill="#ccffcc" stroke="black" points="228,-212 174,-212 174,-176 228,-176 228,-212"/>
<text text-anchor="middle" x="201" y="-190.3" font-family="Times,serif" font-size="14.00">1.B</text>
</g>
<!-- 1.A&#45;&gt;1.B -->
<g id="edge4" class="edge"><title>1.A&#45;&gt;1.B</title>
<path fill="none" stroke="#000000" d="M145.245,-217.119C154.726,-213.116 164.815,-208.856 173.715,-205.098"/>
<polygon fill="#000000" stroke="#000000" points="143.883,-213.895 136.032,-221.009 146.606,-220.343 143.883,-213.895"/>
</g>
<!-- 2.A -->
<g id="node14" class="node"><title>2.A</title>
<polygon fill="#ffffcc" stroke="black" points="756,-224.544 756,-239.456 740.184,-250 717.816,-250 702,-239.456 702,-224.544 717.816,-214 740.184,-214 756,-224.544"/>
<text text-anchor="middle" x="729" y="-228.3" font-family="Times,serif" font-size="14.00">2.A</text>
</g>
<!-- 1.A&#45;&gt;2.A -->
<g id="edge22" class="edge"><title>1.A&#45;&gt;2.A</title>
<path fill="none" stroke="#aa00ff" stroke-width="3" stroke-dasharray="1,5" d="M113.004,-213.795C122.537,-159.104 154.206,-0 200,-0 200,-0 200,-0 638,-0 681.29,-0 711.957,-142.177 723.235,-203.929"/>
<polygon fill="#aa00ff" stroke="#aa00ff" stroke-width="3" points="719.793,-204.566 724.996,-213.795 726.684,-203.336 719.793,-204.566"/>
<text text-anchor="middle" x="401" y="-3.8" font-family="Times,serif" font-size="14.00">==</text>
</g>
<!-- 1.D -->
<g id="node3" class="node"><title>1.D</title>
<polygon fill="#ccffcc" stroke="black" points="320,-170 266,-170 266,-134 320,-134 320,-170"/>
<text text-anchor="middle" x="293" y="-148.3" font-family="Times,serif" font-size="14.00">1.D</text>
</g>
<!-- 2C+ -->
<g id="node18" class="node"><title>2C+</title>
<ellipse fill="#ffffff" stroke="black" cx="401" cy="-151" rx="18" ry="18"/>
<text text-anchor="middle" x="401" y="-147.3" font-family="Times,serif" font-size="14.00">+</text>
</g>
<!-- 1.D&#45;&gt;2C+ -->
<g id="edge21" class="edge"><title>1.D&#45;&gt;2C+</title>
<path fill="none" stroke="#aa00ff" stroke-width="3" stroke-dasharray="1,5" d="M320.202,-151.753C336.043,-151.603 356.217,-151.413 372.317,-151.261"/>
<polygon fill="#aa00ff" stroke="#aa00ff" stroke-width="3" points="372.743,-154.757 382.709,-151.163 372.677,-147.758 372.743,-154.757"/>
<text text-anchor="middle" x="347" y="-155.8" font-family="Times,serif" font-size="14.00">in</text>
</g>
<!-- 1.E -->
<g id="node4" class="node"><title>1.E</title>
<polygon fill="#ccffcc" stroke="black" points="320,-94 266,-94 266,-58 320,-58 320,-94"/>
<text text-anchor="middle" x="293" y="-72.3" font-family="Times,serif" font-size="14.00">1.E</text>
</g>
<!-- 2.E -->
<g id="node17" class="node"><title>2.E</title>
<polygon fill="#ffffcc" stroke="black" points="500,-38.5442 500,-53.4558 484.184,-64 461.816,-64 446,-53.4558 446,-38.5442 461.816,-28 484.184,-28 500,-38.5442"/>
<text text-anchor="middle" x="473" y="-42.3" font-family="Times,serif" font-size="14.00">2.E</text>
</g>
<!-- 1.E&#45;&gt;2.E -->
<g id="edge25" class="edge"><title>1.E&#45;&gt;2.E</title>
<path fill="none" stroke="#aa00ff" stroke-width="3" stroke-dasharray="1,5" d="M320.265,-71.5734C350.851,-66.4184 401.551,-57.8735 435.843,-52.0939"/>
<polygon fill="#aa00ff" stroke="#aa00ff" stroke-width="3" points="436.638,-55.5093 445.918,-50.3959 435.475,-48.6066 436.638,-55.5093"/>
<text text-anchor="middle" x="347" y="-72.8" font-family="Times,serif" font-size="14.00">==</text>
</g>
<!-- 1.G -->
<g id="node6" class="node"><title>1.G</title>
<polygon fill="#ccffcc" stroke="black" points="428,-393 374,-393 374,-357 428,-357 428,-393"/>
<text text-anchor="middle" x="401" y="-371.3" font-family="Times,serif" font-size="14.00">1.G</text>
</g>
<!-- 1.F&#45;&gt;1.G -->
<g id="edge8" class="edge"><title>1.F&#45;&gt;1.G</title>
<path fill="none" stroke="#000000" d="M329.385,-344.356C343.874,-350.643 360.344,-357.791 373.732,-363.601"/>
<polygon fill="#000000" stroke="#000000" points="330.769,-341.141 320.202,-340.371 327.982,-347.562 330.769,-341.141"/>
</g>
<!-- 1.H -->
<g id="node9" class="node"><title>1.H</title>
<polygon fill="#ccffcc" stroke="black" points="428,-347 374,-347 374,-311 428,-311 428,-347"/>
<text text-anchor="middle" x="401" y="-325.3" font-family="Times,serif" font-size="14.00">1.H</text>
</g>
<!-- 1.F&#45;&gt;1.H -->
<g id="edge1" class="edge"><title>1.F&#45;&gt;1.H</title>
<path fill="none" stroke="#000000" d="M330.215,-329C344.5,-329 360.599,-329 373.732,-329"/>
<polygon fill="#000000" stroke="#000000" points="330.202,-325.5 320.202,-329 330.202,-332.5 330.202,-325.5"/>
</g>
<!-- 2.B -->
<g id="node13" class="node"><title>2.B</title>
<polygon fill="#ffffcc" stroke="black" points="664,-224.544 664,-239.456 648.184,-250 625.816,-250 610,-239.456 610,-224.544 625.816,-214 648.184,-214 664,-224.544"/>
<text text-anchor="middle" x="637" y="-228.3" font-family="Times,serif" font-size="14.00">2.B</text>
</g>
<!-- 1.F&#45;&gt;2.B -->
<g id="edge17" class="edge"><title>1.F&#45;&gt;2.B</title>
<path fill="none" stroke="#aa00ff" stroke-width="3" stroke-dasharray="1,5" d="M320.147,-319.63C335.7,-314.193 355.872,-307.38 374,-302 469.901,-273.542 495.854,-273.621 592,-246 594.986,-245.142 598.075,-244.224 601.17,-243.282"/>
<polygon fill="#aa00ff" stroke="#aa00ff" stroke-width="3" points="602.435,-246.554 610.945,-240.242 600.357,-239.869 602.435,-246.554"/>
<text text-anchor="middle" x="473" y="-285.8" font-family="Times,serif" font-size="14.00">&gt;&lt;</text>
</g>
<!-- 2.F -->
<g id="node16" class="node"><title>2.F</title>
<polygon fill="#ffffcc" stroke="black" points="664,-366.544 664,-381.456 648.184,-392 625.816,-392 610,-381.456 610,-366.544 625.816,-356 648.184,-356 664,-366.544"/>
<text text-anchor="middle" x="637" y="-370.3" font-family="Times,serif" font-size="14.00">2.F</text>
</g>
<!-- 1.F&#45;&gt;2.F -->
<g id="edge18" class="edge"><title>1.F&#45;&gt;2.F</title>
<path fill="none" stroke="#aa00ff" stroke-width="3" stroke-dasharray="1,5" d="M308.005,-347.229C322.469,-364.566 346.724,-389.762 374,-402 454.52,-438.126 487.581,-442.726 572,-417 586.591,-412.553 600.874,-403.545 612.231,-394.918"/>
<polygon fill="#aa00ff" stroke="#aa00ff" stroke-width="3" points="614.669,-397.45 620.302,-388.476 610.303,-391.979 614.669,-397.45"/>
<text text-anchor="middle" x="473" y="-436.8" font-family="Times,serif" font-size="14.00">&gt;&lt;</text>
</g>
<!-- 2.G -->
<g id="node15" class="node"><title>2.G</title>
<polygon fill="#ffffcc" stroke="black" points="572,-388.544 572,-403.456 556.184,-414 533.816,-414 518,-403.456 518,-388.544 533.816,-378 556.184,-378 572,-388.544"/>
<text text-anchor="middle" x="545" y="-392.3" font-family="Times,serif" font-size="14.00">2.G</text>
</g>
<!-- 1.G&#45;&gt;2.G -->
<g id="edge20" class="edge"><title>1.G&#45;&gt;2.G</title>
<path fill="none" stroke="#aa00ff" stroke-width="3" stroke-dasharray="1,5" d="M428.045,-378.852C450.324,-382.146 482.634,-386.925 507.493,-390.601"/>
<polygon fill="#aa00ff" stroke="#aa00ff" stroke-width="3" points="507.235,-394.101 517.639,-392.102 508.259,-387.176 507.235,-394.101"/>
<text text-anchor="middle" x="473" y="-392.8" font-family="Times,serif" font-size="14.00">==</text>
</g>
<!-- 1.B&#45;&gt;1.D -->
<g id="edge7" class="edge"><title>1.B&#45;&gt;1.D</title>
<path fill="none" stroke="#000000" d="M237.245,-177.553C246.726,-173.128 256.815,-168.42 265.715,-164.266"/>
<polygon fill="#000000" stroke="#000000" points="235.613,-174.451 228.032,-181.852 238.574,-180.795 235.613,-174.451"/>
</g>
<!-- 1.B&#45;&gt;1.E -->
<g id="edge6" class="edge"><title>1.B&#45;&gt;1.E</title>
<path fill="none" stroke="#000000" d="M222.042,-167.723C239.143,-145.301 263.28,-113.656 278.267,-94.0059"/>
<polygon fill="#000000" stroke="#000000" points="219.147,-165.747 215.865,-175.821 224.713,-169.992 219.147,-165.747"/>
</g>
<!-- 1.C -->
<g id="node8" class="node"><title>1.C</title>
<polygon fill="#ccffcc" stroke="black" points="572,-190 518,-190 518,-154 572,-154 572,-190"/>
<text text-anchor="middle" x="545" y="-168.3" font-family="Times,serif" font-size="14.00">1.C</text>
</g>
<!-- 1.B&#45;&gt;1.C -->
<g id="edge2" class="edge"><title>1.B&#45;&gt;1.C</title>
<path fill="none" stroke="#000000" d="M238.157,-193.848C294.351,-193.263 405.969,-190.709 500,-180 505.709,-179.35 511.793,-178.407 517.56,-177.395"/>
<polygon fill="#000000" stroke="#000000" points="237.971,-190.349 228.002,-193.938 238.033,-197.349 237.971,-190.349"/>
</g>
<!-- 1.B&#45;&gt;2.B -->
<g id="edge16" class="edge"><title>1.B&#45;&gt;2.B</title>
<path fill="none" stroke="#aa00ff" stroke-width="3" stroke-dasharray="1,5" d="M228.353,-211.665C245.679,-221.589 269.273,-232 292,-232 292,-232 292,-232 546,-232 563.56,-232 583.047,-232 599.385,-232"/>
<polygon fill="#aa00ff" stroke="#aa00ff" stroke-width="3" points="599.615,-235.5 609.615,-232 599.615,-228.5 599.615,-235.5"/>
<text text-anchor="middle" x="401" y="-235.8" font-family="Times,serif" font-size="14.00">&lt;</text>
</g>
<!-- 2.H -->
<g id="node11" class="node"><title>2.H</title>
<polygon fill="#ffffcc" stroke="black" points="572,-306.544 572,-321.456 556.184,-332 533.816,-332 518,-321.456 518,-306.544 533.816,-296 556.184,-296 572,-306.544"/>
<text text-anchor="middle" x="545" y="-310.3" font-family="Times,serif" font-size="14.00">2.H</text>
</g>
<!-- 1.H&#45;&gt;2.H -->
<g id="edge19" class="edge"><title>1.H&#45;&gt;2.H</title>
<path fill="none" stroke="#aa00ff" stroke-width="3" stroke-dasharray="1,5" d="M428.045,-326.249C450.324,-323.895 482.634,-320.482 507.493,-317.856"/>
<polygon fill="#aa00ff" stroke="#aa00ff" stroke-width="3" points="508.062,-321.316 517.639,-316.785 507.327,-314.355 508.062,-321.316"/>
<text text-anchor="middle" x="473" y="-327.8" font-family="Times,serif" font-size="14.00">==</text>
</g>
<!-- 2.I -->
<g id="node10" class="node"><title>2.I</title>
<polygon fill="#ffffcc" stroke="black" points="572,-347.544 572,-362.456 556.184,-373 533.816,-373 518,-362.456 518,-347.544 533.816,-337 556.184,-337 572,-347.544"/>
<text text-anchor="middle" x="545" y="-351.3" font-family="Times,serif" font-size="14.00">2.I</text>
</g>
<!-- 2.I&#45;&gt;2.F -->
<g id="edge15" class="edge"><title>2.I&#45;&gt;2.F</title>
<path fill="none" stroke="#000000" d="M572.032,-360.496C580.724,-362.331 590.573,-364.41 599.891,-366.377"/>
<polygon fill="#000000" stroke="#000000" points="599.208,-369.81 609.715,-368.451 600.654,-362.961 599.208,-369.81"/>
</g>
<!-- 2.H&#45;&gt;2.B -->
<g id="edge12" class="edge"><title>2.H&#45;&gt;2.B</title>
<path fill="none" stroke="#000000" d="M570.252,-305.1C577.689,-301.687 585.593,-297.31 592,-292 603.144,-282.764 612.961,-270.119 620.479,-258.818"/>
<polygon fill="#000000" stroke="#000000" points="623.588,-260.452 625.997,-250.134 617.68,-256.698 623.588,-260.452"/>
</g>
<!-- 2.C -->
<g id="node12" class="node"><title>2.C</title>
<polygon fill="#ffffcc" stroke="black" points="572,-107.544 572,-122.456 556.184,-133 533.816,-133 518,-122.456 518,-107.544 533.816,-97 556.184,-97 572,-107.544"/>
<text text-anchor="middle" x="545" y="-111.3" font-family="Times,serif" font-size="14.00">2.C</text>
</g>
<!-- 2.C&#45;&gt;2.B -->
<g id="edge11" class="edge"><title>2.C&#45;&gt;2.B</title>
<path fill="none" stroke="#000000" d="M560.004,-130.681C563.958,-135.236 568.214,-140.262 572,-145 588.148,-165.208 605.477,-188.901 618.025,-206.454"/>
<polygon fill="#000000" stroke="#000000" points="615.472,-208.903 624.12,-215.023 621.176,-204.845 615.472,-208.903"/>
</g>
<!-- 2.B&#45;&gt;2.A -->
<g id="edge13" class="edge"><title>2.B&#45;&gt;2.A</title>
<path fill="none" stroke="#000000" d="M664.032,-232C672.632,-232 682.363,-232 691.593,-232"/>
<polygon fill="#000000" stroke="#000000" points="691.715,-235.5 701.715,-232 691.715,-228.5 691.715,-235.5"/>
</g>
<!-- 2.G&#45;&gt;2.F -->
<g id="edge14" class="edge"><title>2.G&#45;&gt;2.F</title>
<path fill="none" stroke="#000000" d="M572.032,-389.637C580.724,-387.512 590.573,-385.104 599.891,-382.827"/>
<polygon fill="#000000" stroke="#000000" points="600.832,-386.2 609.715,-380.425 599.17,-379.4 600.832,-386.2"/>
</g>
<!-- 2.F&#45;&gt;2.A -->
<g id="edge9" class="edge"><title>2.F&#45;&gt;2.A</title>
<path fill="none" stroke="#000000" d="M649.217,-356.303C664.864,-331.615 693.353,-286.665 711.446,-258.119"/>
<polygon fill="#000000" stroke="#000000" points="714.528,-259.794 716.925,-249.474 708.615,-256.047 714.528,-259.794"/>
</g>
<!-- 2.E&#45;&gt;2.B -->
<g id="edge10" class="edge"><title>2.E&#45;&gt;2.B</title>
<path fill="none" stroke="#000000" d="M500.326,-51.6085C521.987,-57.4303 552.236,-68.4979 572,-88 604.542,-120.111 621.87,-171.66 629.98,-203.586"/>
<polygon fill="#000000" stroke="#000000" points="626.648,-204.699 632.386,-213.605 633.454,-203.064 626.648,-204.699"/>
</g>
<!-- 2C+&#45;&gt;1.C -->
<g id="edge24" class="edge"><title>2C+&#45;&gt;1.C</title>
<path fill="none" stroke="#aa00ff" stroke-width="3" stroke-dasharray="1,5" d="M429.094,-154.753C448.779,-157.508 476.054,-161.385 500,-165 505.813,-165.878 512.052,-166.851 517.952,-167.786"/>
<polygon fill="#aa00ff" stroke="#aa00ff" stroke-width="3" points="429.396,-151.261 419.008,-153.346 428.429,-158.194 429.396,-151.261"/>
<text text-anchor="middle" x="473" y="-168.8" font-family="Times,serif" font-size="14.00">in</text>
</g>
<!-- 2C+&#45;&gt;2.C -->
<g id="edge23" class="edge"><title>2C+&#45;&gt;2.C</title>
<path fill="none" stroke="#aa00ff" stroke-width="3" stroke-dasharray="1,5" d="M418.688,-146.339C426.9,-144.073 436.955,-141.341 446,-139 466.461,-133.705 489.404,-128.07 507.945,-123.592"/>
<polygon fill="#aa00ff" stroke="#aa00ff" stroke-width="3" points="508.845,-126.975 517.748,-121.232 507.207,-120.17 508.845,-126.975"/>
<text text-anchor="middle" x="473" y="-142.8" font-family="Times,serif" font-size="14.00">out</text>
</g>
<!-- Legend -->
<g id="node19" class="node"><title>Legend</title>
<polygon fill="white" stroke="black" points="63.5,-332.5 0.5,-332.5 0.5,-131.5 63.5,-131.5 63.5,-332.5"/>
<polygon fill="none" stroke="black" points="1,-306 1,-332 64,-332 64,-306 1,-306"/>
<text text-anchor="start" x="8" y="-315.3" font-family="Arial Black" font-size="14.00"> Nodes</text>
<polygon fill="#ccffcc" stroke="none" points="1,-281 1,-306 44,-306 44,-281 1,-281"/>
<polygon fill="none" stroke="black" points="1,-281 1,-306 44,-306 44,-281 1,-281"/>
<text text-anchor="start" x="19" y="-289.8" font-family="Times,serif" font-size="14.00">1</text>
<polygon fill="none" stroke="black" points="44,-281 44,-306 64,-306 64,-281 44,-281"/>
<text text-anchor="start" x="50.5" y="-289.8" font-family="Times,serif" font-size="14.00">9</text>
<polygon fill="#ffffcc" stroke="none" points="1,-256 1,-281 44,-281 44,-256 1,-256"/>
<polygon fill="none" stroke="black" points="1,-256 1,-281 44,-281 44,-256 1,-256"/>
<text text-anchor="start" x="19" y="-264.8" font-family="Times,serif" font-size="14.00">2</text>
<polygon fill="none" stroke="black" points="44,-256 44,-281 64,-281 64,-256 44,-256"/>
<text text-anchor="start" x="50.5" y="-264.8" font-family="Times,serif" font-size="14.00">8</text>
<polygon fill="#ffffff" stroke="none" points="1,-231 1,-256 44,-256 44,-231 1,-231"/>
<polygon fill="none" stroke="black" points="1,-231 1,-256 44,-256 44,-231 1,-231"/>
<text text-anchor="start" x="13.5" y="-239.8" font-family="Times,serif" font-size="14.00">(+)</text>
<polygon fill="none" stroke="black" points="44,-231 44,-256 64,-256 64,-231 44,-231"/>
<text text-anchor="start" x="50.5" y="-239.8" font-family="Times,serif" font-size="14.00">1</text>
<polygon fill="none" stroke="black" points="1,-206 1,-231 64,-231 64,-206 1,-206"/>
<text text-anchor="start" x="6.5" y="-214.8" font-family="Arial Black" font-size="14.00"> Edges </text>
<polygon fill="none" stroke="black" points="1,-181 1,-206 44,-206 44,-181 1,-181"/>
<text text-anchor="start" x="8" y="-189.8" font-family="Times,serif" font-size="14.00" fill="#000000">isa_1</text>
<polygon fill="none" stroke="black" points="44,-181 44,-206 64,-206 64,-181 44,-181"/>
<text text-anchor="start" x="50.5" y="-189.8" font-family="Times,serif" font-size="14.00">8</text>
<polygon fill="none" stroke="black" points="1,-156 1,-181 44,-181 44,-156 1,-156"/>
<text text-anchor="start" x="8" y="-164.8" font-family="Times,serif" font-size="14.00" fill="#000000">isa_2</text>
<polygon fill="none" stroke="black" points="44,-156 44,-181 64,-181 64,-156 44,-156"/>
<text text-anchor="start" x="50.5" y="-164.8" font-family="Times,serif" font-size="14.00">7</text>
<polygon fill="none" stroke="black" points="1,-131 1,-156 44,-156 44,-131 1,-131"/>
<text text-anchor="start" x="11.5" y="-139.8" font-family="Times,serif" font-size="14.00" fill="#aa00ff">Art.</text>
<polygon fill="none" stroke="black" points="44,-131 44,-156 64,-156 64,-131 44,-131"/>
<text text-anchor="start" x="50.5" y="-139.8" font-family="Times,serif" font-size="14.00">8</text>
</g>
</g>
</svg>
