<?xml version="1.0" encoding="UTF-8" standalone="no"?>
<!DOCTYPE svg PUBLIC "-//W3C//DTD SVG 1.1//EN"
 "http://www.w3.org/Graphics/SVG/1.1/DTD/svg11.dtd">
<!-- Generated by graphviz version 2.36.0 (20140111.2315)
 -->
<!-- Title: %3 Pages: 1 -->
<svg width="450pt" height="264pt"
 viewBox="0.00 0.00 450.00 264.00" xmlns="http://www.w3.org/2000/svg" xmlns:xlink="http://www.w3.org/1999/xlink">
<g id="graph0" class="graph" transform="scale(1 1) rotate(0) translate(4 260)">
<title>%3</title>
<polygon fill="white" stroke="none" points="-4,4 -4,-260 446,-260 446,4 -4,4"/>
<!-- 1.D -->
<g id="node1" class="node"><title>1.D</title>
<polygon fill="#ccffcc" stroke="black" points="324,-256 270,-256 270,-220 324,-220 324,-256"/>
<text text-anchor="middle" x="297" y="-234.3" font-family="Times,serif" font-size="14.00">1.D</text>
</g>
<!-- 1.B -->
<g id="node3" class="node"><title>1.B</title>
<polygon fill="#ccffcc" stroke="black" points="234,-202 180,-202 180,-166 234,-166 234,-202"/>
<text text-anchor="middle" x="207" y="-180.3" font-family="Times,serif" font-size="14.00">1.B</text>
</g>
<!-- 1.D&#45;&gt;1.B -->
<g id="edge16" class="edge"><title>1.D&#45;&gt;1.B</title>
<path fill="none" stroke="#000000" d="M269.597,-221.798C261.168,-216.626 251.707,-210.82 242.776,-205.34"/>
<polygon fill="#000000" stroke="#000000" points="244.435,-202.251 234.081,-200.004 240.774,-208.218 244.435,-202.251"/>
</g>
<!-- 2.C -->
<g id="node7" class="node"><title>2.C</title>
<polygon fill="#ffffcc" stroke="black" points="234,-230.544 234,-245.456 218.184,-256 195.816,-256 180,-245.456 180,-230.544 195.816,-220 218.184,-220 234,-230.544"/>
<text text-anchor="middle" x="207" y="-234.3" font-family="Times,serif" font-size="14.00">2.C</text>
</g>
<!-- 1.D&#45;&gt;2.C -->
<g id="edge20" class="edge"><title>1.D&#45;&gt;2.C</title>
<path fill="none" stroke="#000000" d="M269.597,-238C261.607,-238 252.689,-238 244.176,-238"/>
<polygon fill="#000000" stroke="#000000" points="244.081,-234.5 234.081,-238 244.081,-241.5 244.081,-234.5"/>
</g>
<!-- 1.F -->
<g id="node2" class="node"><title>1.F</title>
<polygon fill="#ccffcc" stroke="black" points="144,-144 90,-144 90,-108 144,-108 144,-144"/>
<text text-anchor="middle" x="117" y="-122.3" font-family="Times,serif" font-size="14.00">1.F</text>
</g>
<!-- 2.B -->
<g id="node8" class="node"><title>2.B</title>
<polygon fill="#ffffcc" stroke="black" points="144,-174.544 144,-189.456 128.184,-200 105.816,-200 90,-189.456 90,-174.544 105.816,-164 128.184,-164 144,-174.544"/>
<text text-anchor="middle" x="117" y="-178.3" font-family="Times,serif" font-size="14.00">2.B</text>
</g>
<!-- 1.F&#45;&gt;2.B -->
<g id="edge5" class="edge"><title>1.F&#45;&gt;2.B</title>
<path fill="none" stroke="#0000ff" stroke-dasharray="1,5" d="M117,-144.375C117,-150.842 117,-157.309 117,-163.775"/>
</g>
<!-- 2.F -->
<g id="node9" class="node"><title>2.F</title>
<polygon fill="#ffffcc" stroke="black" points="144,-64.5442 144,-79.4558 128.184,-90 105.816,-90 90,-79.4558 90,-64.5442 105.816,-54 128.184,-54 144,-64.5442"/>
<text text-anchor="middle" x="117" y="-68.3" font-family="Times,serif" font-size="14.00">2.F</text>
</g>
<!-- 1.F&#45;&gt;2.F -->
<g id="edge6" class="edge"><title>1.F&#45;&gt;2.F</title>
<path fill="none" stroke="#0000ff" stroke-dasharray="1,5" d="M117,-107.79C117,-101.907 117,-96.0238 117,-90.1406"/>
</g>
<!-- 1.A\n2.A -->
<g id="node12" class="node"><title>1.A\n2.A</title>
<path fill="#eeeeee" stroke="black" d="M42,-118C42,-118 12,-118 12,-118 6,-118 0,-112 0,-106 0,-106 0,-92 0,-92 0,-86 6,-80 12,-80 12,-80 42,-80 42,-80 48,-80 54,-86 54,-92 54,-92 54,-106 54,-106 54,-112 48,-118 42,-118"/>
<text text-anchor="middle" x="27" y="-102.8" font-family="Times,serif" font-size="14.00">1.A</text>
<text text-anchor="middle" x="27" y="-87.8" font-family="Times,serif" font-size="14.00">2.A</text>
</g>
<!-- 1.F&#45;&gt;1.A\n2.A -->
<g id="edge10" class="edge"><title>1.F&#45;&gt;1.A\n2.A</title>
<path fill="none" stroke="#000000" d="M89.5971,-117.899C81.519,-115.421 72.4933,-112.651 63.8954,-110.013"/>
<polygon fill="#000000" stroke="#000000" points="64.6678,-106.589 54.081,-107.002 62.6145,-113.281 64.6678,-106.589"/>
</g>
<!-- 1.B&#45;&gt;2.C -->
<g id="edge2" class="edge"><title>1.B&#45;&gt;2.C</title>
<path fill="none" stroke="#0000ff" stroke-dasharray="1,5" d="M207,-202.141C207,-208.024 207,-213.907 207,-219.79"/>
</g>
<!-- 1.B&#45;&gt;2.B -->
<g id="edge8" class="edge"><title>1.B&#45;&gt;2.B</title>
<path fill="none" stroke="#000000" d="M179.597,-183.4C171.607,-183.218 162.689,-183.016 154.176,-182.822"/>
<polygon fill="#000000" stroke="#000000" points="154.158,-179.321 144.081,-182.593 153.999,-186.319 154.158,-179.321"/>
</g>
<!-- 1.C -->
<g id="node4" class="node"><title>1.C</title>
<polygon fill="#ccffcc" stroke="black" points="324,-202 270,-202 270,-166 324,-166 324,-202"/>
<text text-anchor="middle" x="297" y="-180.3" font-family="Times,serif" font-size="14.00">1.C</text>
</g>
<!-- 1.C&#45;&gt;1.B -->
<g id="edge7" class="edge"><title>1.C&#45;&gt;1.B</title>
<path fill="none" stroke="#000000" d="M269.597,-184C261.607,-184 252.689,-184 244.176,-184"/>
<polygon fill="#000000" stroke="#000000" points="244.081,-180.5 234.081,-184 244.081,-187.5 244.081,-180.5"/>
</g>
<!-- 1.C&#45;&gt;2.C -->
<g id="edge17" class="edge"><title>1.C&#45;&gt;2.C</title>
<path fill="none" stroke="#000000" d="M269.597,-200.202C258.997,-206.706 246.766,-214.212 236.01,-220.812"/>
<polygon fill="#000000" stroke="#000000" points="234.083,-217.888 227.39,-226.101 237.744,-223.854 234.083,-217.888"/>
</g>
<!-- 1.I -->
<g id="node5" class="node"><title>1.I</title>
<polygon fill="#ccffcc" stroke="black" points="144,-36 90,-36 90,-0 144,-0 144,-36"/>
<text text-anchor="middle" x="117" y="-14.3" font-family="Times,serif" font-size="14.00">1.I</text>
</g>
<!-- 1.I&#45;&gt;2.C -->
<g id="edge4" class="edge"><title>1.I&#45;&gt;2.C</title>
<path fill="none" stroke="#0000ff" stroke-dasharray="1,5" d="M137.928,-36.1115C140.233,-38.9057 142.346,-41.8995 144,-45 179.532,-111.608 144.468,-144.392 180,-211 182.45,-215.593 185.908,-219.953 189.505,-223.775"/>
</g>
<!-- 1.I&#45;&gt;2.B -->
<g id="edge3" class="edge"><title>1.I&#45;&gt;2.B</title>
<path fill="none" stroke="#0000ff" stroke-dasharray="1,5" d="M144.305,-33.5429C151.38,-39.0255 158.099,-45.8843 162,-54 179.328,-90.0521 178.848,-107.721 162,-144 156.918,-154.943 146.96,-163.872 137.701,-170.318"/>
</g>
<!-- 1.I&#45;&gt;2.F -->
<g id="edge1" class="edge"><title>1.I&#45;&gt;2.F</title>
<path fill="none" stroke="#0000ff" stroke-dasharray="1,5" d="M117,-36.1406C117,-42.0238 117,-47.907 117,-53.7902"/>
</g>
<!-- 1.I&#45;&gt;1.A\n2.A -->
<g id="edge9" class="edge"><title>1.I&#45;&gt;1.A\n2.A</title>
<path fill="none" stroke="#000000" d="M96.0314,-36.3802C84.357,-47.126 69.4266,-60.8687 56.5286,-72.7407"/>
<polygon fill="#000000" stroke="#000000" points="53.7951,-70.4998 48.8077,-79.8474 58.5357,-75.6502 53.7951,-70.4998"/>
</g>
<!-- 2.I -->
<g id="node6" class="node"><title>2.I</title>
<polygon fill="#ffffcc" stroke="black" points="234,-10.5442 234,-25.4558 218.184,-36 195.816,-36 180,-25.4558 180,-10.5442 195.816,-3.55271e-15 218.184,-0 234,-10.5442"/>
<text text-anchor="middle" x="207" y="-14.3" font-family="Times,serif" font-size="14.00">2.I</text>
</g>
<!-- 2.I&#45;&gt;1.I -->
<g id="edge23" class="edge"><title>2.I&#45;&gt;1.I</title>
<path fill="none" stroke="#ff0000" d="M179.597,-18C171.607,-18 162.689,-18 154.176,-18"/>
<polygon fill="#ff0000" stroke="#ff0000" points="154.081,-14.5001 144.081,-18 154.081,-21.5001 154.081,-14.5001"/>
</g>
<!-- 2.I&#45;&gt;2.F -->
<g id="edge22" class="edge"><title>2.I&#45;&gt;2.F</title>
<path fill="none" stroke="#000000" d="M186.47,-29.9844C174.621,-37.2552 159.301,-46.6562 146.158,-54.7215"/>
<polygon fill="#000000" stroke="#000000" points="144.168,-51.8358 137.475,-60.0492 147.829,-57.8021 144.168,-51.8358"/>
</g>
<!-- 2.C&#45;&gt;2.B -->
<g id="edge15" class="edge"><title>2.C&#45;&gt;2.B</title>
<path fill="none" stroke="#000000" d="M186.905,-225.849C174.912,-218.217 159.239,-208.243 145.87,-199.736"/>
<polygon fill="#000000" stroke="#000000" points="147.373,-196.543 137.057,-194.127 143.615,-202.449 147.373,-196.543"/>
</g>
<!-- 2.B&#45;&gt;1.A\n2.A -->
<g id="edge14" class="edge"><title>2.B&#45;&gt;1.A\n2.A</title>
<path fill="none" stroke="#000000" d="M100.267,-167.161C87.8903,-155.487 70.3381,-138.933 55.6313,-125.061"/>
<polygon fill="#000000" stroke="#000000" points="57.9187,-122.408 48.2425,-118.092 53.1157,-127.5 57.9187,-122.408"/>
</g>
<!-- 2.F&#45;&gt;1.A\n2.A -->
<g id="edge12" class="edge"><title>2.F&#45;&gt;1.A\n2.A</title>
<path fill="none" stroke="#000000" d="M90.0731,-79.9549C81.8218,-82.4865 72.5442,-85.333 63.7266,-88.0384"/>
<polygon fill="#000000" stroke="#000000" points="62.5792,-84.7294 54.0457,-91.0087 64.6325,-91.4215 62.5792,-84.7294"/>
</g>
<!-- 1.G\n2.G -->
<g id="node10" class="node"><title>1.G\n2.G</title>
<path fill="#eeeeee" stroke="black" d="M222,-92C222,-92 192,-92 192,-92 186,-92 180,-86 180,-80 180,-80 180,-66 180,-66 180,-60 186,-54 192,-54 192,-54 222,-54 222,-54 228,-54 234,-60 234,-66 234,-66 234,-80 234,-80 234,-86 228,-92 222,-92"/>
<text text-anchor="middle" x="207" y="-76.8" font-family="Times,serif" font-size="14.00">1.G</text>
<text text-anchor="middle" x="207" y="-61.8" font-family="Times,serif" font-size="14.00">2.G</text>
</g>
<!-- 1.G\n2.G&#45;&gt;1.F -->
<g id="edge21" class="edge"><title>1.G\n2.G&#45;&gt;1.F</title>
<path fill="none" stroke="#000000" d="M179.597,-88.9017C171.168,-93.9785 161.707,-99.6766 152.776,-105.055"/>
<polygon fill="#000000" stroke="#000000" points="150.842,-102.135 144.081,-110.292 154.453,-108.131 150.842,-102.135"/>
</g>
<!-- 1.G\n2.G&#45;&gt;2.F -->
<g id="edge19" class="edge"><title>1.G\n2.G&#45;&gt;2.F</title>
<path fill="none" stroke="#000000" d="M179.597,-72.7C171.607,-72.6092 162.689,-72.5078 154.176,-72.4111"/>
<polygon fill="#000000" stroke="#000000" points="154.12,-68.9103 144.081,-72.2964 154.041,-75.9099 154.12,-68.9103"/>
</g>
<!-- 1.E\n2.E -->
<g id="node11" class="node"><title>1.E\n2.E</title>
<path fill="#eeeeee" stroke="black" d="M312,-148C312,-148 282,-148 282,-148 276,-148 270,-142 270,-136 270,-136 270,-122 270,-122 270,-116 276,-110 282,-110 282,-110 312,-110 312,-110 318,-110 324,-116 324,-122 324,-122 324,-136 324,-136 324,-142 318,-148 312,-148"/>
<text text-anchor="middle" x="297" y="-132.8" font-family="Times,serif" font-size="14.00">1.E</text>
<text text-anchor="middle" x="297" y="-117.8" font-family="Times,serif" font-size="14.00">2.E</text>
</g>
<!-- 1.E\n2.E&#45;&gt;1.B -->
<g id="edge13" class="edge"><title>1.E\n2.E&#45;&gt;1.B</title>
<path fill="none" stroke="#000000" d="M269.597,-145.502C261.168,-150.77 251.707,-156.683 242.776,-162.265"/>
<polygon fill="#000000" stroke="#000000" points="240.706,-159.431 234.081,-167.699 244.416,-165.367 240.706,-159.431"/>
</g>
<!-- 1.H\n2.H -->
<g id="node13" class="node"><title>1.H\n2.H</title>
<path fill="#eeeeee" stroke="black" d="M222,-148C222,-148 192,-148 192,-148 186,-148 180,-142 180,-136 180,-136 180,-122 180,-122 180,-116 186,-110 192,-110 192,-110 222,-110 222,-110 228,-110 234,-116 234,-122 234,-122 234,-136 234,-136 234,-142 228,-148 222,-148"/>
<text text-anchor="middle" x="207" y="-132.8" font-family="Times,serif" font-size="14.00">1.H</text>
<text text-anchor="middle" x="207" y="-117.8" font-family="Times,serif" font-size="14.00">2.H</text>
</g>
<!-- 1.H\n2.H&#45;&gt;1.F -->
<g id="edge11" class="edge"><title>1.H\n2.H&#45;&gt;1.F</title>
<path fill="none" stroke="#000000" d="M179.597,-128.1C171.607,-127.828 162.689,-127.524 154.176,-127.233"/>
<polygon fill="#000000" stroke="#000000" points="154.194,-123.732 144.081,-126.889 153.956,-130.728 154.194,-123.732"/>
</g>
<!-- 1.H\n2.H&#45;&gt;2.B -->
<g id="edge18" class="edge"><title>1.H\n2.H&#45;&gt;2.B</title>
<path fill="none" stroke="#000000" d="M179.597,-144.902C169.076,-151.238 156.948,-158.543 146.251,-164.985"/>
<polygon fill="#000000" stroke="#000000" points="144.429,-161.997 137.668,-170.154 148.041,-167.993 144.429,-161.997"/>
</g>
<!-- Legend -->
<g id="node14" class="node"><title>Legend</title>
<path fill="white" stroke="black" d="M429.5,-229.5C429.5,-229.5 372.5,-229.5 372.5,-229.5 366.5,-229.5 360.5,-223.5 360.5,-217.5 360.5,-217.5 360.5,-40.5 360.5,-40.5 360.5,-34.5 366.5,-28.5 372.5,-28.5 372.5,-28.5 429.5,-28.5 429.5,-28.5 435.5,-28.5 441.5,-34.5 441.5,-40.5 441.5,-40.5 441.5,-217.5 441.5,-217.5 441.5,-223.5 435.5,-229.5 429.5,-229.5"/>
<polygon fill="none" stroke="black" points="361,-203 361,-229 442,-229 442,-203 361,-203"/>
<text text-anchor="start" x="377" y="-212.3" font-family="Arial Black" font-size="14.00"> Nodes</text>
<polygon fill="#ccffcc" stroke="none" points="361,-178 361,-203 418,-203 418,-178 361,-178"/>
<polygon fill="none" stroke="black" points="361,-178 361,-203 418,-203 418,-178 361,-178"/>
<text text-anchor="start" x="386" y="-186.8" font-family="Times,serif" font-size="14.00">1</text>
<polygon fill="none" stroke="black" points="418,-178 418,-203 442,-203 442,-178 418,-178"/>
<text text-anchor="start" x="426.5" y="-186.8" font-family="Times,serif" font-size="14.00">5</text>
<polygon fill="#ffffcc" stroke="none" points="361,-153 361,-178 418,-178 418,-153 361,-153"/>
<polygon fill="none" stroke="black" points="361,-153 361,-178 418,-178 418,-153 361,-153"/>
<text text-anchor="start" x="386" y="-161.8" font-family="Times,serif" font-size="14.00">2</text>
<polygon fill="none" stroke="black" points="418,-153 418,-178 442,-178 442,-153 418,-153"/>
<text text-anchor="start" x="426.5" y="-161.8" font-family="Times,serif" font-size="14.00">4</text>
<polygon fill="#eeeeee" stroke="none" points="361,-128 361,-153 418,-153 418,-128 361,-128"/>
<polygon fill="none" stroke="black" points="361,-128 361,-153 418,-153 418,-128 361,-128"/>
<text text-anchor="start" x="374" y="-136.8" font-family="Times,serif" font-size="14.00">comb</text>
<polygon fill="none" stroke="black" points="418,-128 418,-153 442,-153 442,-128 418,-128"/>
<text text-anchor="start" x="426.5" y="-136.8" font-family="Times,serif" font-size="14.00">4</text>
<polygon fill="none" stroke="black" points="361,-103 361,-128 442,-128 442,-103 361,-103"/>
<text text-anchor="start" x="375.5" y="-111.8" font-family="Arial Black" font-size="14.00"> Edges </text>
<polygon fill="none" stroke="black" points="361,-78 361,-103 418,-103 418,-78 361,-78"/>
<text text-anchor="start" x="366.5" y="-86.8" font-family="Times,serif" font-size="14.00" fill="#0000ff">overlaps</text>
<polygon fill="none" stroke="black" points="418,-78 418,-103 442,-103 442,-78 418,-78"/>
<text text-anchor="start" x="426.5" y="-86.8" font-family="Times,serif" font-size="14.00">6</text>
<polygon fill="none" stroke="black" points="361,-53 361,-78 418,-78 418,-53 361,-53"/>
<text text-anchor="start" x="375.5" y="-61.8" font-family="Times,serif" font-size="14.00" fill="#000000">input</text>
<polygon fill="none" stroke="black" points="418,-53 418,-78 442,-78 442,-53 418,-53"/>
<text text-anchor="start" x="423" y="-61.8" font-family="Times,serif" font-size="14.00">16</text>
<polygon fill="none" stroke="black" points="361,-28 361,-53 418,-53 418,-28 361,-28"/>
<text text-anchor="start" x="368" y="-36.8" font-family="Times,serif" font-size="14.00" fill="#ff0000">inferred</text>
<polygon fill="none" stroke="black" points="418,-28 418,-53 442,-53 442,-28 418,-28"/>
<text text-anchor="start" x="426.5" y="-36.8" font-family="Times,serif" font-size="14.00">1</text>
</g>
</g>
</svg>
