<?xml version="1.0" encoding="UTF-8" standalone="no"?>
<!DOCTYPE svg PUBLIC "-//W3C//DTD SVG 1.1//EN"
 "http://www.w3.org/Graphics/SVG/1.1/DTD/svg11.dtd">
<!-- Generated by graphviz version 2.36.0 (20140111.2315)
 -->
<!-- Title: %3 Pages: 1 -->
<svg width="540pt" height="294pt"
 viewBox="0.00 0.00 540.00 294.00" xmlns="http://www.w3.org/2000/svg" xmlns:xlink="http://www.w3.org/1999/xlink">
<g id="graph0" class="graph" transform="scale(1 1) rotate(0) translate(4 290)">
<title>%3</title>
<polygon fill="white" stroke="none" points="-4,4 -4,-290 536,-290 536,4 -4,4"/>
<!-- 1.D -->
<g id="node1" class="node"><title>1.D</title>
<polygon fill="#ccffcc" stroke="black" points="414,-258 360,-258 360,-222 414,-222 414,-258"/>
<text text-anchor="middle" x="387" y="-236.3" font-family="Times,serif" font-size="14.00">1.D</text>
</g>
<!-- 2.C -->
<g id="node6" class="node"><title>2.C</title>
<polygon fill="#ffffcc" stroke="black" points="324,-205.544 324,-220.456 308.184,-231 285.816,-231 270,-220.456 270,-205.544 285.816,-195 308.184,-195 324,-205.544"/>
<text text-anchor="middle" x="297" y="-209.3" font-family="Times,serif" font-size="14.00">2.C</text>
</g>
<!-- 1.D&#45;&gt;2.C -->
<g id="edge11" class="edge"><title>1.D&#45;&gt;2.C</title>
<path fill="none" stroke="#000000" d="M359.597,-231.899C351.284,-229.349 341.968,-226.49 333.146,-223.784"/>
<polygon fill="#000000" stroke="#000000" points="334.064,-220.404 323.477,-220.817 332.011,-227.096 334.064,-220.404"/>
</g>
<!-- 1.F -->
<g id="node2" class="node"><title>1.F</title>
<polygon fill="#ccffcc" stroke="black" points="144,-121 90,-121 90,-85 144,-85 144,-121"/>
<text text-anchor="middle" x="117" y="-99.3" font-family="Times,serif" font-size="14.00">1.F</text>
</g>
<!-- 2.F -->
<g id="node5" class="node"><title>2.F</title>
<polygon fill="#ffffcc" stroke="black" points="144,-41.5442 144,-56.4558 128.184,-67 105.816,-67 90,-56.4558 90,-41.5442 105.816,-31 128.184,-31 144,-41.5442"/>
<text text-anchor="middle" x="117" y="-45.3" font-family="Times,serif" font-size="14.00">2.F</text>
</g>
<!-- 1.F&#45;&gt;2.F -->
<g id="edge2" class="edge"><title>1.F&#45;&gt;2.F</title>
<path fill="none" stroke="#0000ff" stroke-dasharray="1,5" d="M117,-84.7902C117,-78.907 117,-73.0238 117,-67.1406"/>
</g>
<!-- 2.B -->
<g id="node7" class="node"><title>2.B</title>
<polygon fill="#ffffcc" stroke="black" points="144,-149.544 144,-164.456 128.184,-175 105.816,-175 90,-164.456 90,-149.544 105.816,-139 128.184,-139 144,-149.544"/>
<text text-anchor="middle" x="117" y="-153.3" font-family="Times,serif" font-size="14.00">2.B</text>
</g>
<!-- 1.F&#45;&gt;2.B -->
<g id="edge1" class="edge"><title>1.F&#45;&gt;2.B</title>
<path fill="none" stroke="#0000ff" stroke-dasharray="1,5" d="M117,-121.141C117,-127.024 117,-132.907 117,-138.79"/>
</g>
<!-- 1.A\n2.A -->
<g id="node8" class="node"><title>1.A\n2.A</title>
<path fill="#eeeeee" stroke="black" d="M42,-122C42,-122 12,-122 12,-122 6,-122 0,-116 0,-110 0,-110 0,-96 0,-96 0,-90 6,-84 12,-84 12,-84 42,-84 42,-84 48,-84 54,-90 54,-96 54,-96 54,-110 54,-110 54,-116 48,-122 42,-122"/>
<text text-anchor="middle" x="27" y="-106.8" font-family="Times,serif" font-size="14.00">1.A</text>
<text text-anchor="middle" x="27" y="-91.8" font-family="Times,serif" font-size="14.00">2.A</text>
</g>
<!-- 1.F&#45;&gt;1.A\n2.A -->
<g id="edge3" class="edge"><title>1.F&#45;&gt;1.A\n2.A</title>
<path fill="none" stroke="#000000" d="M89.5971,-103C81.6068,-103 72.6894,-103 64.1759,-103"/>
<polygon fill="#000000" stroke="#000000" points="64.081,-99.5001 54.081,-103 64.081,-106.5 64.081,-99.5001"/>
</g>
<!-- 1.B -->
<g id="node3" class="node"><title>1.B</title>
<polygon fill="#ccffcc" stroke="black" points="234,-204 180,-204 180,-168 234,-168 234,-204"/>
<text text-anchor="middle" x="207" y="-182.3" font-family="Times,serif" font-size="14.00">1.B</text>
</g>
<!-- 1.B&#45;&gt;2.B -->
<g id="edge10" class="edge"><title>1.B&#45;&gt;2.B</title>
<path fill="none" stroke="#000000" d="M179.597,-177.299C171.21,-174.535 161.803,-171.435 152.912,-168.505"/>
<polygon fill="#000000" stroke="#000000" points="153.77,-165.103 143.177,-165.297 151.579,-171.751 153.77,-165.103"/>
</g>
<!-- 1.C -->
<g id="node4" class="node"><title>1.C</title>
<polygon fill="#ccffcc" stroke="black" points="414,-204 360,-204 360,-168 414,-168 414,-204"/>
<text text-anchor="middle" x="387" y="-182.3" font-family="Times,serif" font-size="14.00">1.C</text>
</g>
<!-- 1.C&#45;&gt;2.C -->
<g id="edge5" class="edge"><title>1.C&#45;&gt;2.C</title>
<path fill="none" stroke="#000000" d="M359.597,-194.101C351.284,-196.651 341.968,-199.51 333.146,-202.216"/>
<polygon fill="#000000" stroke="#000000" points="332.011,-198.904 323.477,-205.183 334.064,-205.596 332.011,-198.904"/>
</g>
<!-- 2.F&#45;&gt;1.A\n2.A -->
<g id="edge7" class="edge"><title>2.F&#45;&gt;1.A\n2.A</title>
<path fill="none" stroke="#000000" d="M96.4699,-60.9844C86.5438,-67.0754 74.1814,-74.6614 62.7034,-81.7047"/>
<polygon fill="#000000" stroke="#000000" points="60.8462,-78.7379 54.1535,-86.9513 64.5073,-84.7042 60.8462,-78.7379"/>
</g>
<!-- 2.C&#45;&gt;1.B -->
<g id="edge15" class="edge"><title>2.C&#45;&gt;1.B</title>
<path fill="none" stroke="#ff0000" d="M270.073,-205.045C261.822,-202.514 252.544,-199.667 243.727,-196.962"/>
<polygon fill="#ff0000" stroke="#ff0000" points="244.633,-193.579 234.046,-193.991 242.579,-200.271 244.633,-193.579"/>
</g>
<!-- 2.B&#45;&gt;1.A\n2.A -->
<g id="edge13" class="edge"><title>2.B&#45;&gt;1.A\n2.A</title>
<path fill="none" stroke="#000000" d="M96.4699,-145.016C86.5438,-138.925 74.1814,-131.339 62.7034,-124.295"/>
<polygon fill="#000000" stroke="#000000" points="64.5073,-121.296 54.1535,-119.049 60.8462,-127.262 64.5073,-121.296"/>
</g>
<!-- 1.I\n2.I -->
<g id="node9" class="node"><title>1.I\n2.I</title>
<path fill="#eeeeee" stroke="black" d="M222,-38C222,-38 192,-38 192,-38 186,-38 180,-32 180,-26 180,-26 180,-12 180,-12 180,-6 186,-0 192,-0 192,-0 222,-0 222,-0 228,-0 234,-6 234,-12 234,-12 234,-26 234,-26 234,-32 228,-38 222,-38"/>
<text text-anchor="middle" x="207" y="-22.8" font-family="Times,serif" font-size="14.00">1.I</text>
<text text-anchor="middle" x="207" y="-7.8" font-family="Times,serif" font-size="14.00">2.I</text>
</g>
<!-- 1.I\n2.I&#45;&gt;2.F -->
<g id="edge14" class="edge"><title>1.I\n2.I&#45;&gt;2.F</title>
<path fill="none" stroke="#000000" d="M179.597,-28.001C171.046,-30.9162 161.433,-34.1933 152.39,-37.2763"/>
<polygon fill="#000000" stroke="#000000" points="151.213,-33.9795 142.877,-40.5191 153.472,-40.6051 151.213,-33.9795"/>
</g>
<!-- 1.G\n2.G -->
<g id="node10" class="node"><title>1.G\n2.G</title>
<path fill="#eeeeee" stroke="black" d="M222,-94C222,-94 192,-94 192,-94 186,-94 180,-88 180,-82 180,-82 180,-68 180,-68 180,-62 186,-56 192,-56 192,-56 222,-56 222,-56 228,-56 234,-62 234,-68 234,-68 234,-82 234,-82 234,-88 228,-94 222,-94"/>
<text text-anchor="middle" x="207" y="-78.8" font-family="Times,serif" font-size="14.00">1.G</text>
<text text-anchor="middle" x="207" y="-63.8" font-family="Times,serif" font-size="14.00">2.G</text>
</g>
<!-- 1.G\n2.G&#45;&gt;1.F -->
<g id="edge9" class="edge"><title>1.G\n2.G&#45;&gt;1.F</title>
<path fill="none" stroke="#000000" d="M179.597,-83.4009C171.431,-85.9992 162.297,-88.9055 153.615,-91.6679"/>
<polygon fill="#000000" stroke="#000000" points="152.549,-88.3341 144.081,-94.7015 154.672,-95.0046 152.549,-88.3341"/>
</g>
<!-- 1.G\n2.G&#45;&gt;2.F -->
<g id="edge8" class="edge"><title>1.G\n2.G&#45;&gt;2.F</title>
<path fill="none" stroke="#000000" d="M179.597,-67.1991C171.358,-64.7647 162.132,-62.0391 153.381,-59.4534"/>
<polygon fill="#000000" stroke="#000000" points="154.361,-56.0934 143.779,-56.6164 152.377,-62.8065 154.361,-56.0934"/>
</g>
<!-- 1.E\n2.E -->
<g id="node11" class="node"><title>1.E\n2.E</title>
<path fill="#eeeeee" stroke="black" d="M312,-177C312,-177 282,-177 282,-177 276,-177 270,-171 270,-165 270,-165 270,-151 270,-151 270,-145 276,-139 282,-139 282,-139 312,-139 312,-139 318,-139 324,-145 324,-151 324,-151 324,-165 324,-165 324,-171 318,-177 312,-177"/>
<text text-anchor="middle" x="297" y="-161.8" font-family="Times,serif" font-size="14.00">1.E</text>
<text text-anchor="middle" x="297" y="-146.8" font-family="Times,serif" font-size="14.00">2.E</text>
</g>
<!-- 1.E\n2.E&#45;&gt;1.B -->
<g id="edge12" class="edge"><title>1.E\n2.E&#45;&gt;1.B</title>
<path fill="none" stroke="#000000" d="M269.597,-166.401C261.431,-168.999 252.297,-171.905 243.615,-174.668"/>
<polygon fill="#000000" stroke="#000000" points="242.549,-171.334 234.081,-177.701 244.672,-178.005 242.549,-171.334"/>
</g>
<!-- 1.H\n2.H -->
<g id="node12" class="node"><title>1.H\n2.H</title>
<path fill="#eeeeee" stroke="black" d="M222,-150C222,-150 192,-150 192,-150 186,-150 180,-144 180,-138 180,-138 180,-124 180,-124 180,-118 186,-112 192,-112 192,-112 222,-112 222,-112 228,-112 234,-118 234,-124 234,-124 234,-138 234,-138 234,-144 228,-150 222,-150"/>
<text text-anchor="middle" x="207" y="-134.8" font-family="Times,serif" font-size="14.00">1.H</text>
<text text-anchor="middle" x="207" y="-119.8" font-family="Times,serif" font-size="14.00">2.H</text>
</g>
<!-- 1.H\n2.H&#45;&gt;1.F -->
<g id="edge4" class="edge"><title>1.H\n2.H&#45;&gt;1.F</title>
<path fill="none" stroke="#000000" d="M179.597,-122.599C171.431,-120.001 162.297,-117.095 153.615,-114.332"/>
<polygon fill="#000000" stroke="#000000" points="154.672,-110.995 144.081,-111.299 152.549,-117.666 154.672,-110.995"/>
</g>
<!-- 1.H\n2.H&#45;&gt;2.B -->
<g id="edge6" class="edge"><title>1.H\n2.H&#45;&gt;2.B</title>
<path fill="none" stroke="#000000" d="M179.597,-138.801C171.358,-141.235 162.132,-143.961 153.381,-146.547"/>
<polygon fill="#000000" stroke="#000000" points="152.377,-143.193 143.779,-149.384 154.361,-149.907 152.377,-143.193"/>
</g>
<!-- Legend -->
<g id="node13" class="node"><title>Legend</title>
<path fill="white" stroke="black" d="M519.5,-286.5C519.5,-286.5 462.5,-286.5 462.5,-286.5 456.5,-286.5 450.5,-280.5 450.5,-274.5 450.5,-274.5 450.5,-97.5 450.5,-97.5 450.5,-91.5 456.5,-85.5 462.5,-85.5 462.5,-85.5 519.5,-85.5 519.5,-85.5 525.5,-85.5 531.5,-91.5 531.5,-97.5 531.5,-97.5 531.5,-274.5 531.5,-274.5 531.5,-280.5 525.5,-286.5 519.5,-286.5"/>
<polygon fill="none" stroke="black" points="451,-260 451,-286 532,-286 532,-260 451,-260"/>
<text text-anchor="start" x="467" y="-269.3" font-family="Arial Black" font-size="14.00"> Nodes</text>
<polygon fill="#ccffcc" stroke="none" points="451,-235 451,-260 508,-260 508,-235 451,-235"/>
<polygon fill="none" stroke="black" points="451,-235 451,-260 508,-260 508,-235 451,-235"/>
<text text-anchor="start" x="476" y="-243.8" font-family="Times,serif" font-size="14.00">1</text>
<polygon fill="none" stroke="black" points="508,-235 508,-260 532,-260 532,-235 508,-235"/>
<text text-anchor="start" x="516.5" y="-243.8" font-family="Times,serif" font-size="14.00">4</text>
<polygon fill="#ffffcc" stroke="none" points="451,-210 451,-235 508,-235 508,-210 451,-210"/>
<polygon fill="none" stroke="black" points="451,-210 451,-235 508,-235 508,-210 451,-210"/>
<text text-anchor="start" x="476" y="-218.8" font-family="Times,serif" font-size="14.00">2</text>
<polygon fill="none" stroke="black" points="508,-210 508,-235 532,-235 532,-210 508,-210"/>
<text text-anchor="start" x="516.5" y="-218.8" font-family="Times,serif" font-size="14.00">3</text>
<polygon fill="#eeeeee" stroke="none" points="451,-185 451,-210 508,-210 508,-185 451,-185"/>
<polygon fill="none" stroke="black" points="451,-185 451,-210 508,-210 508,-185 451,-185"/>
<text text-anchor="start" x="464" y="-193.8" font-family="Times,serif" font-size="14.00">comb</text>
<polygon fill="none" stroke="black" points="508,-185 508,-210 532,-210 532,-185 508,-185"/>
<text text-anchor="start" x="516.5" y="-193.8" font-family="Times,serif" font-size="14.00">5</text>
<polygon fill="none" stroke="black" points="451,-160 451,-185 532,-185 532,-160 451,-160"/>
<text text-anchor="start" x="465.5" y="-168.8" font-family="Arial Black" font-size="14.00"> Edges </text>
<polygon fill="none" stroke="black" points="451,-135 451,-160 508,-160 508,-135 451,-135"/>
<text text-anchor="start" x="456.5" y="-143.8" font-family="Times,serif" font-size="14.00" fill="#0000ff">overlaps</text>
<polygon fill="none" stroke="black" points="508,-135 508,-160 532,-160 532,-135 508,-135"/>
<text text-anchor="start" x="516.5" y="-143.8" font-family="Times,serif" font-size="14.00">2</text>
<polygon fill="none" stroke="black" points="451,-110 451,-135 508,-135 508,-110 451,-110"/>
<text text-anchor="start" x="465.5" y="-118.8" font-family="Times,serif" font-size="14.00" fill="#000000">input</text>
<polygon fill="none" stroke="black" points="508,-110 508,-135 532,-135 532,-110 508,-110"/>
<text text-anchor="start" x="513" y="-118.8" font-family="Times,serif" font-size="14.00">12</text>
<polygon fill="none" stroke="black" points="451,-85 451,-110 508,-110 508,-85 451,-85"/>
<text text-anchor="start" x="458" y="-93.8" font-family="Times,serif" font-size="14.00" fill="#ff0000">inferred</text>
<polygon fill="none" stroke="black" points="508,-85 508,-110 532,-110 532,-85 508,-85"/>
<text text-anchor="start" x="516.5" y="-93.8" font-family="Times,serif" font-size="14.00">1</text>
</g>
</g>
</svg>
